<?xml version="1.0" standalone="no"?>
<!DOCTYPE svg PUBLIC "-//W3C//DTD SVG 20010904//EN"
 "http://www.w3.org/TR/2001/REC-SVG-20010904/DTD/svg10.dtd">
<svg version="1.0" xmlns="http://www.w3.org/2000/svg"
 width="600.000000pt" height="397.000000pt" viewBox="0 0 600.000000 397.000000"
 preserveAspectRatio="xMidYMid meet">
<g transform="translate(0.000000,397.000000) scale(0.100000,-0.100000)"
fill="#000000" stroke="none">
<path d="M533 3873 c40 -54 156 -212 257 -351 102 -140 303 -416 448 -614 144
-198 262 -363 262 -366 0 -4 -12 -14 -28 -23 -15 -8 -92 -53 -172 -99 -164
-94 -219 -140 -252 -214 -23 -50 -23 -58 -23 -381 0 -286 2 -335 17 -367 14
-32 15 -41 3 -76 -28 -79 -57 -249 -58 -333 -1 -80 1 -91 28 -134 36 -58 91
-91 325 -194 l165 -73 43 -90 c55 -114 98 -156 238 -233 107 -59 110 -60 184
-59 41 1 100 9 130 17 l55 15 47 -44 c74 -69 218 -158 285 -177 49 -14 70 -15
108 -7 149 33 255 150 255 280 0 68 -26 126 -71 164 -25 22 -30 30 -19 34 8 3
34 23 56 46 87 86 84 227 -6 321 l-28 30 23 290 c55 681 56 703 45 834 -11
127 -54 318 -91 400 -17 39 -128 251 -244 466 -18 33 -73 137 -122 230 -50 94
-140 265 -201 380 -61 116 -135 257 -166 315 -47 89 -59 105 -82 108 l-26 4
40 -74 c51 -95 91 -169 327 -618 109 -206 250 -472 313 -590 121 -225 160
-323 187 -462 34 -177 32 -291 -15 -888 -30 -367 -29 -363 -47 -356 -8 3 -19
6 -24 6 -5 0 -9 17 -9 38 0 55 -45 138 -94 174 -88 65 -153 74 -360 53 -154
-15 -337 -39 -382 -50 -21 -5 -22 -1 -26 73 -4 95 -24 138 -124 272 -93 125
-108 155 -106 210 0 25 22 108 47 185 43 130 69 250 50 232 -10 -9 -110 -279
-131 -357 -25 -88 -10 -135 93 -277 111 -154 126 -188 126 -283 0 -64 -5 -85
-31 -137 -53 -104 -151 -161 -225 -129 -29 11 -199 177 -365 356 -93 99 -97
120 -101 525 -2 192 1 239 14 280 35 103 35 104 340 285 151 89 325 208 325
222 0 16 -27 7 -114 -42 -49 -28 -92 -47 -96 -43 -4 5 -56 76 -116 158 -59 83
-207 285 -327 450 -121 165 -292 399 -380 520 -190 260 -194 265 -223 265 -21
0 -16 -10 49 -97z m728 -2717 c205 -210 237 -232 325 -223 98 10 180 78 219
182 l16 41 187 22 c342 41 391 44 457 27 99 -26 163 -93 172 -178 5 -58 -13
-87 -77 -119 -75 -38 -417 -151 -615 -203 -270 -72 -287 -75 -319 -66 -53 16
-487 219 -527 247 -51 35 -69 77 -69 161 0 62 36 293 46 293 3 0 86 -83 185
-184z m1476 -236 c51 -31 86 -92 91 -159 7 -103 -28 -142 -203 -229 -217 -107
-516 -213 -644 -228 -60 -6 -61 -6 -163 52 -141 79 -155 90 -200 159 l-39 60
78 7 c120 10 766 202 910 270 35 17 74 44 86 59 26 33 42 35 84 9z m18 -443
c78 -78 65 -212 -30 -295 -77 -68 -157 -87 -247 -57 -49 16 -165 87 -231 142
-26 21 -27 24 -10 30 62 22 308 130 381 168 48 24 91 44 96 44 4 1 23 -14 41
-32z"/>
<path d="M3942 3938 c-10 -18 -52 -96 -92 -173 -79 -152 -134 -257 -185 -350
-18 -33 -65 -123 -105 -200 -40 -77 -142 -270 -227 -428 -167 -313 -180 -342
-212 -462 -62 -239 -63 -312 -10 -950 6 -71 16 -196 23 -278 l12 -147 -23 -22
c-13 -12 -34 -44 -48 -72 -29 -58 -34 -143 -10 -199 16 -40 80 -107 102 -107
7 0 13 -4 13 -10 0 -5 -4 -10 -9 -10 -21 0 -73 -68 -88 -117 -21 -67 -7 -137
42 -210 62 -92 198 -154 292 -133 82 19 222 103 318 191 l40 37 55 -15 c30 -8
89 -16 130 -17 75 -1 75 -1 189 64 129 73 184 128 230 223 16 34 31 69 34 77
2 9 65 42 138 74 352 155 389 187 389 338 0 81 -29 257 -55 327 -14 40 -14 49
0 91 12 36 16 111 18 370 l2 325 -27 51 c-40 76 -73 110 -147 153 -36 21 -121
71 -188 110 l-122 71 170 233 c93 127 215 295 271 372 55 77 118 163 138 190
145 197 444 606 454 623 5 8 0 12 -16 12 -23 0 -50 -34 -389 -500 -26 -36
-181 -247 -344 -470 -163 -223 -300 -412 -305 -420 -6 -10 -11 -11 -22 -3 -23
19 -171 93 -186 93 -12 0 -12 -4 2 -19 28 -31 226 -160 401 -261 182 -105 214
-132 247 -204 26 -58 30 -159 19 -511 -6 -178 -8 -194 -31 -238 -36 -68 -390
-432 -434 -447 -122 -40 -265 123 -253 290 5 79 30 131 125 260 134 183 134
187 32 465 -68 187 -71 192 -66 124 2 -30 25 -117 50 -193 29 -86 46 -155 46
-185 0 -50 -5 -59 -142 -248 -68 -94 -102 -186 -95 -256 3 -40 2 -47 -12 -43
-9 3 -65 12 -126 20 -323 45 -461 50 -541 23 -99 -34 -173 -124 -174 -209 0
-35 -19 -58 -47 -58 -5 0 -15 78 -21 173 -7 94 -21 285 -32 422 -34 435 -26
593 43 808 22 69 222 454 723 1398 52 97 94 179 94 183 0 3 -9 6 -19 6 -11 0
-28 -14 -39 -32z m934 -2708 c10 -52 19 -133 19 -180 0 -96 -10 -120 -69 -165
-30 -23 -257 -130 -480 -227 l-69 -30 -126 32 c-412 105 -783 230 -835 282
-26 26 -28 34 -24 84 8 89 80 163 181 184 57 11 127 6 448 -32 l186 -22 16
-45 c46 -130 201 -214 307 -168 21 9 112 94 225 208 105 107 193 190 196 184
4 -5 15 -53 25 -105z m-1600 -321 c16 -17 46 -39 66 -50 56 -29 339 -123 538
-180 96 -27 209 -59 250 -71 41 -12 108 -24 148 -27 l73 -6 -45 -66 c-37 -53
-60 -74 -123 -111 -130 -77 -175 -98 -207 -98 -103 1 -408 105 -672 230 -135
64 -187 107 -204 171 -21 78 21 175 94 220 41 25 47 24 82 -12z m42 -447 c80
-40 213 -99 371 -163 23 -10 21 -12 -50 -65 -41 -30 -107 -71 -146 -91 -66
-32 -78 -35 -131 -31 -172 16 -290 184 -222 317 15 31 62 79 78 81 1 0 46 -22
100 -48z"/>
</g>
</svg>
